<?xml version="1.0" standalone="no"?>
<!DOCTYPE svg PUBLIC "-//W3C//DTD SVG 20010904//EN"
 "http://www.w3.org/TR/2001/REC-SVG-20010904/DTD/svg10.dtd">
<svg version="1.0" xmlns="http://www.w3.org/2000/svg"
 width="500.000000pt" height="500.000000pt" viewBox="0 0 500.000000 500.000000"
 preserveAspectRatio="xMidYMid meet">
<metadata>
Created by potrace 1.14, written by Peter Selinger 2001-2017
</metadata>
<g transform="translate(0.000000,500.000000) scale(0.100000,-0.100000)"
fill="#000000" stroke="none">
<path d="M2773 3725 c-6 -7 -9 -15 -6 -19 3 -3 2 -13 -2 -23 -5 -10 -10 -31
-12 -48 -3 -16 -8 -34 -13 -40 -4 -5 -6 -18 -5 -27 2 -10 -2 -18 -8 -18 -5 0
-8 -3 -4 -6 3 -3 -3 -29 -12 -57 -10 -29 -18 -55 -19 -60 -1 -19 -15 -73 -20
-82 -7 -11 -8 -17 -10 -53 -1 -15 -6 -21 -14 -16 -6 4 -8 3 -4 -4 3 -6 0 -29
-8 -52 -8 -23 -13 -51 -11 -61 2 -11 0 -17 -6 -14 -5 4 -10 -5 -10 -19 -1 -26
-5 -44 -9 -48 -1 -3 -4 -13 -13 -53 -15 -64 -21 -81 -29 -91 -5 -7 -8 -16 -7
-20 2 -5 -3 -27 -9 -48 -6 -22 -9 -42 -7 -44 3 -3 -3 -11 -13 -18 -11 -9 -12
-13 -4 -14 9 0 10 -5 3 -17 -5 -10 -10 -21 -10 -25 -1 -4 -3 -13 -5 -20 -21
-73 -27 -101 -22 -106 3 -3 1 -11 -5 -18 -6 -8 -12 -29 -13 -48 -2 -19 -7 -41
-12 -48 -6 -7 -9 -23 -8 -35 0 -13 -2 -23 -6 -23 -6 0 -10 -16 -11 -52 0 -10
-4 -18 -8 -18 -4 0 -8 -17 -9 -37 -2 -20 -6 -42 -10 -48 -5 -5 -9 -26 -11 -45
-2 -19 -7 -37 -12 -40 -5 -3 -7 -15 -5 -25 2 -11 -1 -31 -7 -45 -5 -14 -12
-43 -14 -64 -2 -22 -8 -47 -13 -57 -5 -9 -7 -26 -5 -38 2 -11 1 -21 -3 -21 -4
0 -8 -8 -9 -17 -1 -10 -4 -40 -7 -68 -6 -56 -9 -94 -7 -112 1 -17 26 -16 44 2
8 8 17 12 19 9 3 -2 24 14 47 36 22 22 38 40 34 40 -3 0 4 8 15 19 12 10 19
21 15 25 -3 3 -1 6 5 6 7 0 12 7 12 15 0 8 5 15 10 15 6 0 10 7 10 15 0 8 5
15 11 15 5 0 8 4 4 9 -3 5 2 17 11 25 8 9 13 16 9 16 -3 0 1 10 9 23 8 12 15
25 16 29 1 14 11 43 21 60 5 10 9 27 9 38 0 11 6 20 13 20 8 0 7 4 -3 10 -12
7 -12 10 -1 10 7 0 11 6 8 14 -3 8 -3 17 1 21 4 4 8 11 8 16 1 5 3 10 4 12 1
1 3 13 4 27 1 14 5 30 8 35 3 6 9 30 13 55 4 25 9 48 12 53 3 5 7 30 8 55 2
26 6 68 10 93 3 26 7 70 8 98 1 28 5 51 10 51 11 0 -1 54 -13 58 -5 2 -3 10 5
19 8 8 13 18 10 23 -3 5 0 10 6 12 7 2 13 36 15 86 1 45 6 87 9 92 3 6 1 10
-5 10 -6 0 -8 10 -4 27 5 19 2 30 -11 40 -11 7 -13 13 -6 13 7 0 9 5 6 10 -3
6 -2 10 4 10 9 0 23 29 19 40 -1 3 5 16 12 30 19 34 21 59 27 265 5 224 3 278
-14 260z"/>
</g>
</svg>
