<svg data-v-423bf9ae="" xmlns="http://www.w3.org/2000/svg" viewBox="0 0 413 90" class="iconLeft"><!----><!----><!----><g data-v-423bf9ae="" id="007a3980-da2d-47b2-b4ad-3778f18a47a9" fill="#ffffff" transform="matrix(5.272407679843658,0,0,5.272407679843658,36.49641687927661,2.873460918837523)"><path d="M7.04 13.55L5.26 10.95L3.75 10.95L3.75 13.55L0.98 13.55L0.98 3.75L5.46 3.75L5.46 3.75Q6.79 3.75 7.77 4.19L7.77 4.19L7.77 4.19Q8.75 4.63 9.28 5.45L9.28 5.45L9.28 5.45Q9.81 6.27 9.81 7.38L9.81 7.38L9.81 7.38Q9.81 8.44 9.32 9.23L9.32 9.23L9.32 9.23Q8.82 10.02 7.90 10.47L7.90 10.47L10.01 13.55L7.04 13.55ZM7.01 7.38L7.01 7.38Q7.01 6.69 6.58 6.31L6.58 6.31L6.58 6.31Q6.15 5.94 5.29 5.94L5.29 5.94L3.75 5.94L3.75 8.81L5.29 8.81L5.29 8.81Q6.15 8.81 6.58 8.43L6.58 8.43L6.58 8.43Q7.01 8.06 7.01 7.38L7.01 7.38ZM15.02 13.68L15.02 13.68Q13.80 13.68 12.82 13.17L12.82 13.17L12.82 13.17Q11.84 12.67 11.29 11.77L11.29 11.77L11.29 11.77Q10.74 10.88 10.74 9.74L10.74 9.74L10.74 9.74Q10.74 8.62 11.29 7.73L11.29 7.73L11.29 7.73Q11.84 6.83 12.82 6.33L12.82 6.33L12.82 6.33Q13.79 5.84 15.02 5.84L15.02 5.84L15.02 5.84Q16.25 5.84 17.23 6.33L17.23 6.33L17.23 6.33Q18.21 6.83 18.76 7.72L18.76 7.72L18.76 7.72Q19.31 8.61 19.31 9.74L19.31 9.74L19.31 9.74Q19.31 10.88 18.76 11.77L18.76 11.77L18.76 11.77Q18.21 12.67 17.23 13.17L17.23 13.17L17.23 13.17Q16.25 13.68 15.02 13.68L15.02 13.68ZM15.02 11.56L15.02 11.56Q15.72 11.56 16.17 11.08L16.17 11.08L16.17 11.08Q16.62 10.60 16.62 9.74L16.62 9.74L16.62 9.74Q16.62 8.90 16.17 8.43L16.17 8.43L16.17 8.43Q15.72 7.95 15.02 7.95L15.02 7.95L15.02 7.95Q14.32 7.95 13.87 8.43L13.87 8.43L13.87 8.43Q13.43 8.90 13.43 9.74L13.43 9.74L13.43 9.74Q13.43 10.60 13.87 11.08L13.87 11.08L13.87 11.08Q14.32 11.56 15.02 11.56L15.02 11.56ZM25.86 5.96L28.52 5.96L28.52 13.55L25.98 13.55L25.98 12.74L25.98 12.74Q25.56 13.20 24.98 13.44L24.98 13.44L24.98 13.44Q24.39 13.68 23.73 13.68L23.73 13.68L23.73 13.68Q22.26 13.68 21.38 12.81L21.38 12.81L21.38 12.81Q20.51 11.94 20.51 10.21L20.51 10.21L20.51 5.96L23.17 5.96L23.17 9.77L23.17 9.77Q23.17 10.63 23.49 11.02L23.49 11.02L23.49 11.02Q23.81 11.41 24.43 11.41L24.43 11.41L24.43 11.41Q25.06 11.41 25.46 10.97L25.46 10.97L25.46 10.97Q25.86 10.53 25.86 9.62L25.86 9.62L25.86 5.96ZM35.17 5.84L35.17 5.84Q36.58 5.84 37.44 6.68L37.44 6.68L37.44 6.68Q38.30 7.52 38.30 9.21L38.30 9.21L38.30 13.55L35.64 13.55L35.64 9.65L35.64 9.65Q35.64 8.09 34.40 8.09L34.40 8.09L34.40 8.09Q33.71 8.09 33.30 8.54L33.30 8.54L33.30 8.54Q32.89 8.99 32.89 9.88L32.89 9.88L32.89 13.55L30.23 13.55L30.23 5.96L32.76 5.96L32.76 6.79L32.76 6.79Q33.21 6.33 33.82 6.08L33.82 6.08L33.82 6.08Q34.44 5.84 35.17 5.84L35.17 5.84ZM45.37 3.16L48.03 3.16L48.03 13.55L45.50 13.55L45.50 12.80L45.50 12.80Q44.76 13.68 43.27 13.68L43.27 13.68L43.27 13.68Q42.24 13.68 41.38 13.20L41.38 13.20L41.38 13.20Q40.53 12.71 40.03 11.82L40.03 11.82L40.03 11.82Q39.54 10.92 39.54 9.74L39.54 9.74L39.54 9.74Q39.54 8.57 40.03 7.68L40.03 7.68L40.03 7.68Q40.53 6.79 41.38 6.31L41.38 6.31L41.38 6.31Q42.24 5.84 43.27 5.84L43.27 5.84L43.27 5.84Q44.63 5.84 45.37 6.62L45.37 6.62L45.37 3.16ZM43.83 11.56L43.83 11.56Q44.52 11.56 44.97 11.08L44.97 11.08L44.97 11.08Q45.42 10.60 45.42 9.74L45.42 9.74L45.42 9.74Q45.42 8.90 44.98 8.43L44.98 8.43L44.98 8.43Q44.53 7.95 43.83 7.95L43.83 7.95L43.83 7.95Q43.13 7.95 42.69 8.43L42.69 8.43L42.69 8.43Q42.24 8.90 42.24 9.74L42.24 9.74L42.24 9.74Q42.24 10.60 42.69 11.08L42.69 11.08L42.69 11.08Q43.13 11.56 43.83 11.56L43.83 11.56ZM49.74 13.55L49.74 5.96L52.40 5.96L52.40 13.55L49.74 13.55ZM51.07 5.12L51.07 5.12Q50.34 5.12 49.90 4.72L49.90 4.72L49.90 4.72Q49.45 4.31 49.45 3.71L49.45 3.71L49.45 3.71Q49.45 3.11 49.90 2.70L49.90 2.70L49.90 2.70Q50.34 2.30 51.07 2.30L51.07 2.30L51.07 2.30Q51.80 2.30 52.25 2.68L52.25 2.68L52.25 2.68Q52.70 3.07 52.70 3.67L52.70 3.67L52.70 3.67Q52.70 4.30 52.25 4.71L52.25 4.71L52.25 4.71Q51.80 5.12 51.07 5.12L51.07 5.12ZM59.07 5.84L59.07 5.84Q60.48 5.84 61.34 6.68L61.34 6.68L61.34 6.68Q62.20 7.52 62.20 9.21L62.20 9.21L62.20 13.55L59.54 13.55L59.54 9.65L59.54 9.65Q59.54 8.09 58.30 8.09L58.30 8.09L58.30 8.09Q57.61 8.09 57.20 8.54L57.20 8.54L57.20 8.54Q56.78 8.99 56.78 9.88L56.78 9.88L56.78 13.55L54.12 13.55L54.12 5.96L56.66 5.96L56.66 6.79L56.66 6.79Q57.11 6.33 57.72 6.08L57.72 6.08L57.72 6.08Q58.34 5.84 59.07 5.84L59.07 5.84ZM67.75 13.68L67.75 13.68Q66.49 13.68 65.49 13.17L65.49 13.17L65.49 13.17Q64.50 12.67 63.94 11.77L63.94 11.77L63.94 11.77Q63.39 10.88 63.39 9.74L63.39 9.74L63.39 9.74Q63.39 8.61 63.94 7.72L63.94 7.72L63.94 7.72Q64.50 6.83 65.49 6.33L65.49 6.33L65.49 6.33Q66.49 5.84 67.75 5.84L67.75 5.84L67.75 5.84Q69.03 5.84 69.97 6.39L69.97 6.39L69.97 6.39Q70.91 6.94 71.30 7.92L71.30 7.92L69.24 8.97L69.24 8.97Q68.73 7.95 67.73 7.95L67.73 7.95L67.73 7.95Q67.02 7.95 66.55 8.43L66.55 8.43L66.55 8.43Q66.08 8.90 66.08 9.74L66.08 9.74L66.08 9.74Q66.08 10.60 66.55 11.08L66.55 11.08L66.55 11.08Q67.02 11.56 67.73 11.56L67.73 11.56L67.73 11.56Q68.73 11.56 69.24 10.54L69.24 10.54L71.30 11.59L71.30 11.59Q70.91 12.57 69.97 13.13L69.97 13.13L69.97 13.13Q69.03 13.68 67.75 13.68L67.75 13.68Z"></path></g><!----><g data-v-423bf9ae="" id="e0b9e631-8f84-4554-adad-1b3dbd06b78b" transform="matrix(5.8985271845422975,0,0,5.8985271845422975,0.16758139906442615,-0.000001430511474609375)" stroke="none" fill="#D21717"><path d="M3.632 0c-.058 1.386.397 4.406-.762 5.145.432-.156.436-.2.432-.156-.075.937.214 2.016-.632 2.568.224.083.433-.29.425-.208-.05.519-.32 6.765-2.972 7.902C-.735 15.618 3.166 1.535 3.632 0z"></path></g><!----></svg>